# ProBuilder 4.0.5
# https://unity3d.com/unity/features/worldbuilding/probuilder
# 29/11/2019 11:58:06 a. m.

mtllib ./Piso_inicio.mtl
o Piso inicio

g Cube
v 26.84397 4.775558 5.245591
v 25.45874 4.763476 5.245591
v 25.45874 4.74426 3.854459
v 26.84397 4.7313 3.854459
v 8.957897 4.789855 4.584477
v 10.3791 4.764166 4.584477
v 10.3791 4.769055 5.977274
v 8.957897 4.758496 5.977274
v 13.56355 4.798039 6.923609
v 14.78771 4.770188 6.923609
v 14.7878 4.793862 8.15215
v 13.4907 4.853247 8.154159
v 25.46613 4.779801 12.83247
v 26.8781 4.749695 12.83247
v 25.46613 4.746665 14.23566
v 26.8781 4.815257 14.23566
v 8.950838 4.749167 18.05915
v 10.37309 4.826258 18.05915
v 8.950838 4.834646 19.54573
v 10.37309 4.751749 19.54573
v 12.06939 4.745861 -2.925702
v 13.36985 4.778466 -2.925702
v 12.06961 4.727705 -1.4899
v 13.3699 4.779879 -1.4899
v 22.29004 4.767944 0.1354346
v 22.2899 4.781877 1.44069
v 21.0625 4.737717 0.1123281
v 21.06278 4.79209 1.478605
v 11.22852 4.723099 12.00488
v 11.22852 4.723099 -4.200401
v 13.41634 4.723153 8.307978
v 13.41051 4.723153 6.769791
v 17.8945 4.772601 11.18275
v 16.50196 4.755548 11.18286
v 17.89446 4.826295 9.860413
v 16.50196 4.770917 9.861982
v 14.94071 4.723153 6.769791
v 14.94083 4.723153 8.305467
v 23.52832 4.723099 -4.200401
v 23.52832 4.723099 12.00488
v 22.39355 4.723156 0.05271292
v 22.39355 4.723156 1.536157
v 20.94822 4.723179 0.05308247
v 20.94865 4.723179 1.536148
v 12.0304 4.723151 -2.968747
v 13.40883 4.723151 -2.968747
v 12.03063 4.723169 -1.446854
v 13.40889 4.723169 -1.446854
v 17.95504 4.723175 11.24023
v 16.44141 4.723175 11.24036
v 17.955 4.723212 9.802915
v 16.44141 4.723212 9.804622
v 28.008 4.723099 -4.200401
v 25.41183 4.723149 3.80735
v 26.89087 4.723149 3.80735
v 25.41183 4.723149 5.2927
v 28.008 4.723099 12.00488
v 26.89087 4.723149 5.2927
v 7.027344 4.723099 -4.200401
v 8.896105 4.723125 4.523921
v 10.44089 4.723125 4.523921
v 10.44089 4.723125 6.03783
v 7.027344 4.723099 12.00488
v 8.896105 4.723125 6.03783
v 8.921207 4.723134 18.02818
v 10.40272 4.723134 18.02818
v 7.027344 4.723099 22.47265
v 8.921207 4.723134 19.5767
v 11.22852 4.723099 22.47265
v 10.40272 4.723134 19.5767
v 25.40474 4.723157 12.77146
v 26.93949 4.723157 12.77146
v 23.52832 4.723099 22.47265
v 25.40474 4.723157 14.29667
v 28.008 4.723099 22.47265
v 26.93949 4.723157 14.29667

vt 0.001528736 0.3636162
vt 0.06317379 0.3636155
vt 0.06317852 0.3017069
vt 0.001539643 0.3017037
vt 0.7974516 0.334214
vt 0.7342147 0.3342088
vt 0.7342135 0.3961893
vt 0.7974594 0.3961889
vt 0.5924991 0.4383032
vt 0.5380311 0.4382978
vt 0.5380211 0.4929719
vt 0.5957274 0.4930715
vt 0.06284112 0.7012358
vt 1.615864E-05 0.7012299
vt 0.06284928 0.7636728
vt 0 0.7636824
vt 0.7977758 0.9338336
vt 0.734467 0.9338443
vt 0.7977548 1
vt 0.7344854 0.9999861
vt 0.6590017 0
vt 0.6011236 3.925604E-06
vt 0.6589963 0.06389066
vt 0.6011208 0.06389761
vt 0.2041794 0.1362159
vt 0.2041821 0.1943021
vt 0.2588121 0.135184
vt 0.2587861 0.195992
vt 0.629078 0.6075531
vt 0.629078 1.492736E-06
vt 0.5470545 0.4689527
vt 0.5472728 0.4112845
vt 0.399779 0.6278281
vt 0.461751 0.6278317
vt 0.3997674 0.5689922
vt 0.4617473 0.5690547
vt 0.6005726 0.4319499
vt 0.5326446 0.4319488
vt 0.5937806 0.4386369
vt 0.5394378 0.4386864
vt 0.5326394 0.5000633
vt 0.539434 0.4931352
vt 0.6003142 0.5001758
vt 0.5970156 0.4931177
vt 0.1679494 1.492736E-06
vt 0.1679494 0.6075531
vt 0.2104928 0.1594548
vt 0.2104928 0.2150706
vt 0.4899021 0.4112871
vt 0.2646751 0.1594712
vt 0.4899008 0.4688583
vt 0.2646621 0.21507
vt 0.2018013 0.1340095
vt 0.2018013 0.1998072
vt 0.2063973 0.1375976
vt 0.2064036 0.1954666
vt 0.2659622 0.1340269
vt 0.2608891 0.1366283
vt 0.265943 0.1998078
vt 0.2608776 0.1971307
vt 0.5990156 0.04617899
vt 0.5473368 0.04617899
vt 0.5989984 0.1032331
vt 0.5473348 0.1032347
vt 0.5990068 0.1032345
vt 0.6618382 9.948753E-07
vt 0.6006473 0
vt 0.6601078 0.001869138
vt 0.602379 0.001809212
vt 0.6618278 0.06750405
vt 0.6600976 0.06558654
vt 0.6006447 0.06750307
vt 0.6023766 0.06549121
vt 0.376895 0.578882
vt 0.4336426 0.5788867
vt 0.3769032 0.525014
vt 0.4336421 0.525063
vt 0.3988339 0.6302318
vt 0.4660264 0.6302384
vt 0.4015225 0.6275926
vt 0.4633393 0.6276295
vt 0.3988357 0.5664799
vt 0.4015251 0.5688437
vt 0.4660264 0.5665566
vt 0.4633396 0.5690145
vt 0 1.736312E-06
vt 0.09733271 0.30022
vt 0.04188208 0.30022
vt 0.09733171 0.355907
vt 1.702234E-06 0.6075531
vt 0.04188377 0.355907
vt 0.06781502 0.3005431
vt 0.002158075 0.3005421
vt 0.06573302 0.3025944
vt 0.004240582 0.3026169
vt 0.06781502 0.3664254
vt 0.06573336 0.3642629
vt 0.002158075 0.3664243
vt 0.004241386 0.36424
vt 0.786585 1.606703E-06
vt 0.7165233 0.3270848
vt 0.6586077 0.3270848
vt 0.658609 0.3838426
vt 0.7865844 0.6075531
vt 0.7165228 0.3838426
vt 0.8009745 0.3323384
vt 0.7323989 0.3323372
vt 0.7982326 0.3349035
vt 0.7351428 0.334949
vt 0.7323989 0.3994862
vt 0.7351428 0.3967172
vt 0.8009745 0.3994874
vt 0.7982321 0.3967374
vt 0.7155822 0.8333727
vt 0.6600389 0.8333727
vt 0.7865843 1
vt 0.7155815 0.8914281
vt 0.6290805 1
vt 0.6600405 0.8914281
vt 0.629079 0.9999996
vt 0.786585 0.9999996
vt 0.7998601 0.9313158
vt 0.7340935 0.9313148
vt 0.7985452 0.9326423
vt 0.7354107 0.9325018
vt 0.7998601 1
vt 0.7985467 0.9984245
vt 0.7354095 0.9985735
vt 0.09759872 0.6362958
vt 0.04005947 0.6362958
vt 0.1679463 1
vt 0.09759755 0.6934745
vt 2.051954E-06 1
vt 0.04006153 0.6934745
vt 2.234635E-09 0.9999997
vt 0.1679475 0.9999997
vt 0.06812999 0.6981437
vt 0 0.6981425
vt 0.06540579 0.7007471
vt 0.002725662 0.7008006
vt 0.06812999 0.7657937
vt 0.06540522 0.7630452
vt 0 0.7657926
vt 0.002726805 0.76292

vn -0.008717401 0.9994563 -0.03179751
vn 0.0003185859 0.9996586 -0.0228046
vn 0.009354573 0.9998609 -0.01381168
vn 0.005321978 0.9997748 0.009499494
vn 0.01807188 0.9998305 -0.003509617
vn -0.007427924 0.9997191 0.02250861
vn 0.0341853 0.9988139 -0.03067001
vn 0.0227411 0.9995558 -0.01926322
vn 0.0456295 0.9980719 -0.0420768
vn 0.02131124 0.9994943 0.02360341
vn -0.01357905 0.9986153 -0.01150709
vn -0.04846934 0.9977362 -0.04661758
vn -0.05403497 0.9968924 -0.05732121
vn 0.002039781 0.9969754 -0.003673606
vn 0.05811453 0.9970583 0.049974
vn -0.02506184 0.999606 0.01264379
vn -0.03257707 0.9994007 0.005830881
vn -0.04009229 0.9991955 -0.0009820235
vn -0.02441418 0.9996449 -0.01067309
vn -0.008663101 0.9994144 -0.02521938
vn 0.007087976 0.9991839 -0.03976566
vn -2.495535E-05 1 0
vn -0.0122314 0.9991019 0.0405699
vn -0.02597659 0.9991225 0.02609766
vn -0.03972179 0.9991431 0.01162543
vn 0 0.8991077 -0.4377276
vn 0.01094268 0.9305251 -0.3550508
vn 0.02188536 0.9619426 -0.2723741
vn 0.2938095 0.955864 -2.262497E-05
vn 0.363749 0.9283795 -0.008708276
vn 0.4336885 0.900895 -0.01739393
vn -0.8665068 0.4991545 0.003279809
vn -0.6261975 0.709734 -0.03042757
vn -0.3858881 0.9203136 -0.06413496
vn 0.00068888 0.9083393 0.4182336
vn 0.01812364 0.8314247 0.5367789
vn 0.03555839 0.7545102 0.6553243
vn 0.3970932 0.9177783 0
vn 0.4481905 0.8920829 -0.004597781
vn 0.4992878 0.8663874 -0.009195562
vn -4.521107E-05 0.9712088 -0.2382301
vn -0.00617579 0.9219967 -0.3630902
vn -0.01230637 0.8727847 -0.4879502
vn 1.048872E-05 0.8517765 0.5239054
vn 0.01476614 0.7315946 0.6573331
vn 0.02952179 0.6114128 0.7907609
vn -0.5168077 0.8561015 0.0001502129
vn -0.3113562 0.9248461 -0.01968475
vn -0.1059047 0.9935907 -0.03951972
vn 0 0.8844538 -0.4666277
vn -0.007613841 0.7459093 -0.6304524
vn -0.01522768 0.6073649 -0.794277
vn -0.1155948 0.9932964 5.681738E-06
vn -0.3139325 0.9260256 0.005471747
vn -0.5122702 0.8587548 0.01093781
vn 0.817369 0.5761145 -3.879579E-05
vn 0.8208028 0.5711799 -0.000313969
vn 0.8242366 0.5662453 -0.0005891422
vn 0 0.6046054 0.7965252
vn -0.01999861 0.8007159 0.4326771
vn -0.03999723 0.9968264 0.06882901
vn 0.0001758662 0.9999999 -0.0003934814
vn 5.339573E-05 0.7583019 0.6519036
vn -0.005317884 0.8172005 0.566958
vn -0.01068916 0.8760992 0.4820124
vn 0.862282 0.5064285 -1.206902E-05
vn 0.7379621 0.6476816 0.01600286
vn 0.6136423 0.7889347 0.03201779
vn -0.4715044 0.8818637 2.284501E-05
vn -0.5478355 0.8315511 0.004556431
vn -0.6241667 0.7812384 0.009090017
vn -0.0007206584 0.7692264 -0.638976
vn -0.01036097 0.6236362 -0.7585415
vn -0.02000127 0.478046 -0.8781071
vn -2.942058E-07 0.9125592 -0.4089448
vn 0.004616147 0.9496909 -0.2852432
vn 0.009232588 0.9868227 -0.1615415
vn -0.6519048 0.7583008 0
vn -0.5258325 0.8374165 -0.006330304
vn -0.3997604 0.9165322 -0.01266061
vn 0.1711872 0.9852385 3.16288E-07
vn 0.4627016 0.8207663 -0.01043978
vn 0.7542161 0.6562942 -0.02087988
vn 0 0.668494 0.7437176
vn -0.003327115 0.7157031 0.6950928
vn -0.006654229 0.7629122 0.6464679
vn 0 0.6720236 -0.7405298
vn 0.007544346 0.7534044 -0.6454493
vn 0.01508869 0.8347852 -0.5503689
vn 0.5532664 0.8330044 0
vn 0.575796 0.8171263 -0.001406276
vn 0.5983256 0.8012482 -0.002812551
vn -0.4967836 0.8678744 0
vn -0.6186179 0.7699066 0.007564327
vn -0.7404522 0.6719387 0.01512865
vn 0 0.796748 0.6043117
vn -0.003218385 0.8315343 0.5518794
vn -0.006436771 0.8663204 0.4994471
vn 0 0.7654687 -0.6434731
vn -0.007684294 0.5245021 -0.8011559
vn -0.01536859 0.2835355 -0.9588386
vn -0.9664631 0.2568055 0
vn -0.7996145 0.5149359 -0.02222561
vn -0.6327659 0.7730662 -0.04445123
vn 0.961113 0.2761553 0
vn 0.8175194 0.507014 0.01849162
vn 0.6739259 0.7378727 0.03698324
vn 0 0.7344765 0.6786342
vn 0.007687034 0.499123 0.8215487
vn 0.01537407 0.2637695 0.9644632
vn 0 0.732831 -0.6804107
vn 0.009849926 0.8283756 -0.5312442
vn 0.01969985 0.9239202 -0.3820776
vn -0.3576016 0.9338742 0
vn -0.5223927 0.8300776 0.008575693
vn -0.6871839 0.7262811 0.01715139
vn 0.3968025 0.917904 0
vn 0.6181496 0.7303384 -0.01268008
vn 0.8394966 0.5427728 -0.02536017
vn 0 0.5522435 0.8336829
vn -0.02299733 0.7495192 0.5761085
vn -0.04599465 0.9467949 0.318534

g Cube
usemtl Piso
f 2/2/2 1/1/1 4/4/2 3/3/3
f 8/8/6 7/7/4 6/6/5 5/5/4
f 12/12/9 11/11/7 10/10/8 9/9/7
f 15/15/11 16/16/12 14/14/11 13/13/10
f 19/19/14 20/20/15 18/18/14 17/17/13
f 23/23/17 24/24/18 22/22/17 21/21/16
f 27/27/20 28/28/21 26/26/20 25/25/19
f 31/31/22 32/32/22 30/30/22 29/29/22
f 35/35/24 36/36/25 34/34/24 33/33/23
f 9/39/27 10/40/28 37/38/27 32/37/26
f 10/40/30 11/42/31 38/41/30 37/38/29
f 12/44/33 9/39/34 32/37/33 31/43/32
f 11/42/36 12/44/37 31/43/36 38/41/35
f 41/47/22 42/48/22 40/46/22 39/45/22
f 43/50/22 41/47/22 39/45/22 37/49/22
f 42/48/22 44/52/22 38/51/22 40/46/22
f 44/52/22 43/50/22 37/49/22 38/51/22
f 25/55/39 26/56/40 42/54/39 41/53/38
f 27/58/42 25/55/43 41/53/42 43/57/41
f 26/56/45 28/60/46 44/59/45 42/54/44
f 28/60/48 27/58/49 43/57/48 44/59/47
f 45/61/22 46/62/22 39/45/22 30/30/22
f 47/63/22 45/61/22 30/30/22 32/32/22
f 46/62/22 48/64/22 37/49/22 39/45/22
f 48/64/22 47/65/22 32/32/22 37/49/22
f 21/68/51 22/69/52 46/67/51 45/66/50
f 23/71/54 21/68/55 45/66/54 47/70/53
f 22/69/57 24/73/58 48/72/57 46/67/56
f 24/73/60 23/71/61 47/70/60 48/72/59
f 49/74/22 50/75/22 29/29/22 40/46/22
f 51/76/22 49/74/22 40/46/22 38/51/62
f 50/75/22 52/77/22 31/31/22 29/29/22
f 52/77/22 51/76/22 38/51/22 31/31/22
f 33/80/64 34/81/65 50/79/64 49/78/63
f 35/83/67 33/80/68 49/78/67 51/82/66
f 34/81/70 36/85/71 52/84/70 50/79/69
f 36/85/73 35/83/74 51/82/73 52/84/72
f 54/87/22 55/88/22 53/86/22 39/45/22
f 56/89/22 54/87/22 39/45/22 40/46/22
f 55/88/22 58/91/22 57/90/22 53/86/22
f 58/91/22 56/89/22 40/46/22 57/90/22
f 3/94/76 4/95/77 55/93/76 54/92/75
f 2/97/79 3/94/80 54/92/79 56/96/78
f 4/95/82 1/99/83 58/98/82 55/93/81
f 1/99/85 2/97/86 56/96/85 58/98/84
f 60/101/22 61/102/22 30/30/22 59/100/22
f 61/102/22 62/103/22 29/29/22 30/30/22
f 64/105/22 60/101/22 59/100/22 63/104/22
f 62/103/22 64/105/22 63/104/22 29/29/22
f 5/108/88 6/109/89 61/107/88 60/106/87
f 6/109/91 7/111/92 62/110/91 61/107/90
f 8/113/94 5/108/95 60/106/94 64/112/93
f 7/111/97 8/113/98 64/112/97 62/110/96
f 65/114/22 66/115/22 29/29/22 63/104/22
f 68/117/22 65/114/22 63/104/22 67/116/22
f 66/115/22 70/119/22 69/118/22 29/29/22
f 70/119/22 68/117/22 67/121/22 69/120/22
f 17/124/100 18/125/101 66/123/100 65/122/99
f 19/127/103 17/124/104 65/122/103 68/126/102
f 18/125/106 20/128/107 70/20/106 66/123/105
f 20/128/109 19/127/110 68/126/109 70/20/108
f 71/129/22 72/130/22 57/90/22 40/46/22
f 74/132/22 71/129/22 40/46/22 73/131/22
f 72/130/22 76/134/22 75/133/22 57/90/22
f 76/134/22 74/132/22 73/136/22 75/135/22
f 13/139/112 14/140/113 72/138/112 71/137/111
f 15/142/115 13/139/116 71/137/115 74/141/114
f 14/140/118 16/144/119 76/143/118 72/138/117
f 16/144/121 15/142/122 74/141/121 76/143/120

